# xmcd CD database generated by RipIT
#
# Track frame offsets:
# 150
# 15356
# 31109
# 46386
# 63054
# 82137
# 101037
# 117495
# 132746
# 146789
# 163641
# 190569
# 208392
#
# Disc length: 3063 seconds
#
# Revision: 0
# Processed by: cddbd v1.5.2PL0 Copyright (c) Steve Scherf et al.
# Submitted via: RipIT 3.6.0 www.suwald.com/ripit/ripit.html on 2008-04-05 at 02:42
#
DISCID=b80bf50d
DTITLE=Children's Masterpiece Theatre - Drift or Die Trying
DYEAR=2008
DGENRE=Grunge
TTITLE0=Black Neon (Digger)
TTITLE1=The Mustang (Lavender)
TTITLE2=The Big Send Off (Live in Studio)
TTITLE3=The Jump House (Dancer)
TTITLE4=Black Neon
TTITLE5=Little Children Scream
TTITLE6=Taxes
TTITLE7=Hollywood Correctional Facility
TTITLE8=Crush Them Bones (Roller)
TTITLE9=Night City Ryemix
TTITLE10=Night City Rainstorm (Coma Daydream)
TTITLE11=The Mustang (Racer)
TTITLE12=Drift
EXTD=http://childrensmasterpiecetheatre.net
EXTD=\n
EXTT0=
EXTT1=
EXTT2=
EXTT3=
EXTT4=
EXTT5=
EXTT6=
EXTT7=
EXTT8=
EXTT9=
EXTT10=
EXTT11=
EXTT12=
PLAYORDER=
